<?xml version="1.0" encoding="iso-8859-1"?>
<!-- Uploaded to: SVG Repo, www.svgrepo.com, Generator: SVG Repo Mixer Tools -->
<svg fill="#212529" height="800px" width="800px" version="1.1" id="Layer_1" xmlns="http://www.w3.org/2000/svg" xmlns:xlink="http://www.w3.org/1999/xlink" 
	 viewBox="0 0 512 512" xml:space="preserve">
<g>
	<g>
		<path d="M438.773,161.142c-36.176-79.747-116.35-134.84-209.216-134.84c-229.323,0-316.56,301.19-122.7,423.903
			c77.851,49.28,178.272,47.155,254.146-5.825c7.146,12.046,13.661,22.612,18.887,30.947c8.645,13.811,28.806,13.804,37.445-0.006
			C443.127,434.112,512,317.234,512,267.189C512,219.762,482.386,177.641,438.773,161.142z M283.418,141.734H175.708
			C205.688,47.969,253.309,47.637,283.418,141.734z M130.483,99.113c6.209-3.93,12.632-7.447,19.216-10.59
			c-7.846,15.264-14.603,33.089-20.054,53.213H83.383C96.462,125.021,112.367,110.58,130.483,99.113z M57.739,185.907h62.704
			c-2.354,15.541-3.905,31.574-4.634,48.005H45.325C47.269,217.368,51.426,201.317,57.739,185.907z M57.738,326.089
			c-6.314-15.409-10.47-31.459-12.412-48.005h70.484c0.729,16.432,2.279,32.467,4.634,48.005H57.738z M83.383,370.261h46.265
			c5.452,20.123,12.209,37.948,20.056,53.213C123.545,410.988,100.971,392.734,83.383,370.261z M229.557,441.521
			c-16.662,0-38.855-24.371-53.849-71.26h107.708C268.416,417.144,246.216,441.521,229.557,441.521z M293.953,326.089H165.178
			c-2.621-15.428-4.364-31.464-5.171-48.005h126.012c1.662,11.843,5.676,24.701,9.793,35.893
			C295.256,318.065,294.626,322.097,293.953,326.089z M289.885,233.911H160.007c0.807-16.538,2.549-32.573,5.17-48.005h128.791
			c1.596,9.472,2.867,19.24,3.796,29.229C294.592,221.268,291.971,227.302,289.885,233.911z M309.429,423.446
			c6.346-12.346,11.985-26.355,16.794-41.914c4.19,8.242,8.491,16.373,12.794,24.268
			C329.687,412.623,319.773,418.512,309.429,423.446z M329.479,141.734c-5.46-20.135-12.224-37.969-20.079-53.241
			c26.306,12.57,48.913,30.946,66.353,53.241H329.479z M398.609,287.519c-11.223,0-20.321-9.098-20.321-20.321
			c0-26.5,40.64-27.306,40.64,0C418.929,278.421,409.831,287.519,398.609,287.519z"/>
	</g>
</g>
</svg>