<?xml version="1.0" encoding="utf-8"?>
<!-- Generator: Adobe Illustrator 16.0.0, SVG Export Plug-In . SVG Version: 6.00 Build 0)  -->
<!DOCTYPE svg PUBLIC "-//W3C//DTD SVG 1.1//EN" "http://www.w3.org/Graphics/SVG/1.1/DTD/svg11.dtd">
<svg version="1.1" id="Capa_1" xmlns="http://www.w3.org/2000/svg" xmlns:xlink="http://www.w3.org/1999/xlink" x="0px" y="0px"
	 width="300px" height="300px" viewBox="0 0 300 300" enable-background="new 0 0 300 300" xml:space="preserve">
<rect width="300.499" height="300.5" fill="#212529"/>
<path fill="#FFFFFF" d="M167.746,57.038l-19.867,41.965h-33.67c-8.396,0.224-15.144,7.092-15.144,15.543v129.005H57.097V111.439
	c0-29.579,23.593-53.637,52.995-54.392c0.464-0.009,0.931-0.009,1.405-0.009H167.746z"/>
<path fill="#FFFFFF" d="M241.35,176.412c1.442,2.354,2.261,5.118,2.261,8.078v59.062h-41.96v-38.847h-49.815
	c-1.219,0-2.41-0.141-3.546-0.411c-6.878-1.609-11.997-7.771-11.997-15.132c0-2.374,0.531-4.627,1.489-6.637l0.54-1.146
	l7.362-15.542h0.009l51.505-108.8h46.422L190.76,168.947h37.307c0.132,0,0.271,0,0.401,0.009c4.904,0.122,9.241,2.514,12.007,6.161
	c0.102,0.149,0.213,0.299,0.325,0.447C240.985,175.845,241.172,176.123,241.35,176.412z"/>
</svg>
