<?xml version="1.0" encoding="UTF-8"?> <svg xmlns="http://www.w3.org/2000/svg" id="Capa_1" data-name="Capa 1" viewBox="0 0 300 300"><defs><style> .cls-1 { fill: #fdd700; } .cls-2 { fill: #ef3942; } .cls-3 { fill: #0c9647; } .cls-4 { fill: #2c70b8; } .cls-5 { fill-rule: evenodd; } </style></defs><path d="M226.15,126.93c0-3.22,2.55-5.91,5.61-5.91s5.65,2.65,5.61,5.91c0,3.22-2.55,5.91-5.61,5.91s-5.61-2.69-5.61-5.91Z"></path><path d="M214.74,152.84c-2.95-3.11-5.76-4.49-9.19-4.49-6.56,0-11.74,5.72-11.7,13.01v.12c0,7.25,5.32,13.16,11.85,13.16,3.1,0,5.76-1.19,8.42-3.8l7.29,7.41c-4.52,4.68-9.66,6.98-15.82,6.98-12.14,0-22.02-10.63-22.02-23.64v-.12c0-13.05,9.88-23.64,22.09-23.64,7.76,0,12.69,3.65,16.11,7.21l-7.04,7.79Z"></path><path class="cls-5" d="M178.14,141.29c0,4.03-1.35,8.1-4.26,11.21,4.19,3.07,6.05,8.29,6.01,13.62,0,10.13-5.18,18.15-20.19,18.15h-20.3v-60.13h19.94c14.07,0,18.81,7.75,18.81,17.15Zm-18.59-6.49h-9.92v13.09h10.53c5.54,0,6.85-3.42,6.85-6.6s-1.09-6.49-7.47-6.49Zm-9.88,38.84h10.35c7.33,0,8.82-3.72,8.89-7.48,0-5.18-2.37-7.6-8.71-7.6h-10.53v15.08Z"></path><path d="M226.7,137.75h10.24v46.55h-10.24v-46.55Z"></path><path class="cls-2" d="M62.63,182.19c.13,3.99,2.96,7.4,6.75,8.03,.52,.09,1.03,.14,1.55,.09,2.15-.09,4.12-1.04,5.54-2.68,1.46-1.63,2.19-3.81,2.11-6.04,0-6.08,3.31-10.21,7.82-14.88,4.73-3.68,11.47-8.17,20.97-13.75,11.82-6.63,19.51-14.48,21.18-20.88l.04-.18c.21-.82,.3-1.63,.26-2.45-.13-3.99-2.96-7.4-6.75-8.03-.52-.09-1.03-.14-1.55-.09-2.15,.09-4.12,1.04-5.54,2.68-1.46,1.63-2.19,3.81-2.11,6.04,0,6.4-3.65,10.66-8.59,15.61-10.53,8.67-20.24,13.02-20.24,13.02-11.82,6.63-19.51,14.48-21.18,20.88l-.04,.18c-.17,.86-.26,1.68-.21,2.45Z"></path><path class="cls-3" d="M110.24,156.59s8.59,2.41,5.89,15.16c-.13,.68-.21,1.36-.13,2.09,.3,3.77,3.44,6.53,7,6.22,3.57-.32,6.19-3.63,5.89-7.4-.6-8.85-16.41-19.7-18.56-19.42,0,0-1.25,.05-1.25,1.72,0,1.36,1.16,1.63,1.16,1.63Z"></path><path class="cls-1" d="M108.81,160.21s5.63,1.59,3.87,9.89c0,0-1.85,7.85-13.75,9.89-13.45,2.36-13.23-2.86-13.23-2.86-.13-2.59-1.03-5.72,12.33-14.25,0,0,6.75-4.36,10.79-2.68Z"></path><path class="cls-4" d="M75.13,122.19c.77,11.35,16.16,24.91,25.35,30.18,2.49,1.45,5.59,1.13,6.49,.77,4.21-2.04-.3-3.77-.3-3.77,0,0-14.48-4.08-9.97-25.6,.26-1.13,.34-2.31,.26-3.54-.52-6.35-5.8-11.07-11.82-10.53-6.06,.54-10.53,6.13-10.01,12.48Z"></path></svg> 