<?xml version="1.0" encoding="utf-8"?>
<!-- Generator: Adobe Illustrator 25.4.1, SVG Export Plug-In . SVG Version: 6.00 Build 0)  -->
<svg version="1.1" id="Capa_1" xmlns="http://www.w3.org/2000/svg" xmlns:xlink="http://www.w3.org/1999/xlink" x="0px" y="0px"
	 viewBox="0 0 250 60" style="enable-background:new 0 0 250 60;" xml:space="preserve">
<style type="text/css">
	.st0{fill:#15396C;}
	.st1{fill:#8DBA38;}
</style>
<g>
	<rect x="16.4" y="95.4" class="st0" width="43.6" height="6.2"/>
	<rect x="16.4" y="107.7" class="st0" width="43.6" height="6.2"/>
	<rect x="16.4" y="120.1" class="st0" width="43.6" height="6.2"/>
	<rect x="16.4" y="132.4" class="st0" width="43.6" height="6.2"/>
	<g>
		<path class="st0" d="M100.3,130.4c3.3,0,5.6-2.3,5.6-5.3c0-2.9-2.3-5.1-5.7-5.1H92v10.4H100.3z M98.3,112.6c2.8,0,4.7-1.9,4.7-4.6
			c0-2.5-1.9-4.5-4.6-4.5H92v9.1H98.3z M82.5,95.4h17.3c6.9,0,12.5,4.7,12.5,11c0,4.1-2.1,7.4-5.6,8.7c5.8,1,8.8,5.3,8.8,10.7
			c0,7.3-5.6,12.8-13.3,12.8H82.5V95.4z"/>
	</g>
	<rect x="126.8" y="95.4" class="st0" width="9.6" height="43.2"/>
	<g>
		<path class="st0" d="M171.3,94.7c7.1,0,13.3,3.1,17.7,8.1l-6.6,5.5c-2.8-3-6.7-4.9-11.1-4.9c-7.8,0-13.8,5.8-13.8,13.6
			c0,7.8,6.1,13.6,13.8,13.6c4.4,0,8.4-1.9,11.1-5l6.6,5.5c-4.3,5-10.6,8.1-17.7,8.1c-13,0-23.5-9.4-23.5-22.3
			C147.9,104.1,158.4,94.7,171.3,94.7"/>
	</g>
	<polygon class="st0" points="198.3,95.4 228.1,95.4 228.1,104.1 208,104.1 208,112.2 226.8,112.2 226.8,120.7 208,120.7 208,129.9 
		228.6,129.9 228.6,138.6 198.3,138.6 	"/>
</g>
</svg>
