<?xml version="1.0" encoding="UTF-8"?>
<svg id="Capa_2" data-name="Capa 2" xmlns="http://www.w3.org/2000/svg" xmlns:xlink="http://www.w3.org/1999/xlink" viewBox="0 0 999.97 145.26">
  <defs>
    <style>
      .cls-1 {
        fill: #d44028;
      }

      .cls-2 {
        fill: #15192c;
      }

      .cls-3 {
        fill: url(#linear-gradient);
      }
    </style>
    <linearGradient id="linear-gradient" x1="51.5" y1="63.27" x2="109.29" y2="154.6" gradientUnits="userSpaceOnUse">
      <stop offset="0" stop-color="#15192c"/>
      <stop offset=".26" stop-color="#121626"/>
      <stop offset=".58" stop-color="#0b0d18"/>
      <stop offset=".92" stop-color="#000"/>
      <stop offset=".92" stop-color="#000"/>
    </linearGradient>
  </defs>
  <g id="Layer_1" data-name="Layer 1">
    <g>
      <g>
        <g>
          <path class="cls-2" d="m297.67,61.79h-10.58c-.41-2.26-1.17-4.25-2.27-5.96-1.11-1.72-2.46-3.18-4.07-4.37-1.61-1.2-3.4-2.1-5.37-2.71-1.98-.61-4.07-.91-6.29-.91-4,0-7.57,1-10.73,3.02-3.15,2.01-5.63,4.96-7.46,8.84-1.82,3.89-2.73,8.63-2.73,14.24s.91,10.42,2.73,14.3c1.82,3.88,4.31,6.82,7.47,8.81,3.17,1.99,6.72,2.98,10.68,2.98,2.19,0,4.27-.3,6.25-.9,1.98-.6,3.77-1.48,5.37-2.66,1.61-1.17,2.97-2.61,4.08-4.32,1.12-1.7,1.89-3.66,2.33-5.88l10.58.03c-.57,3.41-1.66,6.55-3.27,9.4-1.62,2.86-3.68,5.32-6.2,7.39-2.52,2.07-5.39,3.67-8.62,4.8-3.23,1.13-6.75,1.69-10.58,1.69-6.01,0-11.36-1.43-16.06-4.29-4.7-2.86-8.41-6.95-11.1-12.29-2.7-5.33-4.05-11.69-4.05-19.08s1.36-13.78,4.07-19.1c2.71-5.32,6.42-9.41,11.11-12.27,4.7-2.86,10.05-4.29,16.03-4.29,3.69,0,7.12.53,10.32,1.58,3.2,1.05,6.07,2.59,8.63,4.61,2.55,2.02,4.66,4.49,6.34,7.39,1.68,2.9,2.8,6.22,3.39,9.95Z"/>
          <path class="cls-2" d="m309.39,108.63v-52.06h9.8v8.27h.54c.95-2.8,2.63-5.01,5.04-6.63,2.41-1.61,5.13-2.42,8.19-2.42.63,0,1.38.02,2.25.07.87.05,1.55.1,2.05.17v9.69c-.41-.11-1.13-.24-2.17-.39-1.04-.15-2.08-.22-3.12-.22-2.4,0-4.52.5-6.39,1.51-1.86,1.01-3.34,2.4-4.42,4.17-1.08,1.77-1.63,3.79-1.63,6.05v31.79h-10.13Z"/>
          <path class="cls-2" d="m368.5,109.68c-5.13,0-9.54-1.1-13.24-3.3-3.69-2.2-6.54-5.31-8.54-9.32-2-4.01-3-8.72-3-14.12s1-10.03,3-14.1c2-4.07,4.8-7.24,8.41-9.52,3.61-2.28,7.82-3.42,12.66-3.42,2.94,0,5.78.49,8.54,1.46,2.76.97,5.23,2.5,7.42,4.58,2.2,2.08,3.92,4.77,5.19,8.08,1.26,3.31,1.9,7.33,1.9,12.05v3.59h-41.38v-7.59h31.45c0-2.67-.54-5.03-1.63-7.1-1.08-2.06-2.6-3.7-4.56-4.9-1.96-1.2-4.24-1.79-6.86-1.79-2.85,0-5.32.69-7.44,2.08-2.11,1.39-3.74,3.2-4.88,5.42-1.14,2.23-1.71,4.64-1.71,7.24v5.93c0,3.48.62,6.44,1.85,8.88,1.23,2.44,2.95,4.3,5.17,5.58,2.22,1.28,4.8,1.91,7.76,1.91,1.92,0,3.67-.28,5.26-.83,1.58-.55,2.95-1.38,4.1-2.49,1.15-1.11,2.04-2.48,2.64-4.1l9.59,1.73c-.77,2.82-2.14,5.29-4.12,7.41-1.98,2.11-4.45,3.75-7.42,4.91-2.97,1.16-6.36,1.74-10.15,1.74Z"/>
          <path class="cls-2" d="m421.61,109.65c-4.21,0-7.95-1.08-11.24-3.24-3.28-2.16-5.86-5.24-7.73-9.25-1.86-4.01-2.8-8.83-2.8-14.46s.94-10.44,2.83-14.44c1.88-4,4.48-7.06,7.78-9.18,3.3-2.12,7.04-3.19,11.22-3.19,3.22,0,5.83.54,7.81,1.61,1.98,1.07,3.52,2.32,4.61,3.74,1.1,1.42,1.95,2.68,2.56,3.76h.61v-25.79h10.13v69.41h-9.89v-8.1h-.85c-.61,1.11-1.49,2.37-2.62,3.8-1.14,1.42-2.71,2.67-4.7,3.73-1.99,1.06-4.56,1.59-7.73,1.59Zm2.24-8.64c2.91,0,5.38-.77,7.4-2.32,2.02-1.55,3.56-3.7,4.61-6.46,1.05-2.76,1.58-5.97,1.58-9.63s-.52-6.78-1.56-9.49c-1.04-2.71-2.56-4.82-4.58-6.34-2.01-1.51-4.5-2.27-7.45-2.27s-5.59.79-7.63,2.37c-2.04,1.58-3.57,3.74-4.59,6.47-1.03,2.73-1.54,5.82-1.54,9.25s.52,6.61,1.56,9.39c1.04,2.78,2.58,4.97,4.63,6.59,2.04,1.62,4.57,2.42,7.58,2.42Z"/>
          <path class="cls-2" d="m466.96,45.89c-1.76,0-3.27-.6-4.52-1.78-1.25-1.19-1.88-2.6-1.88-4.25s.63-3.1,1.88-4.29c1.25-1.18,2.76-1.78,4.52-1.78s3.27.59,4.52,1.78c1.25,1.19,1.88,2.62,1.88,4.29s-.63,3.07-1.88,4.25c-1.25,1.19-2.76,1.78-4.52,1.78Zm-5.12,62.74v-52.06h10.14v52.06h-10.14Z"/>
          <path class="cls-2" d="m507.52,109.68c-5.04,0-9.37-1.14-13-3.44-3.62-2.29-6.41-5.46-8.36-9.51-1.94-4.04-2.91-8.68-2.91-13.9s.99-9.96,2.98-14.01c1.99-4.06,4.79-7.22,8.4-9.51,3.61-2.28,7.88-3.42,12.78-3.42,3.95,0,7.48.73,10.58,2.19,3.09,1.46,5.6,3.5,7.5,6.12,1.91,2.62,3.05,5.68,3.41,9.18h-9.87c-.54-2.44-1.77-4.54-3.71-6.3-1.93-1.76-4.51-2.64-7.75-2.64-2.82,0-5.29.74-7.4,2.22-2.12,1.48-3.76,3.58-4.93,6.31-1.17,2.72-1.76,5.94-1.76,9.64s.57,7.07,1.73,9.83c1.15,2.76,2.79,4.89,4.9,6.41,2.12,1.51,4.6,2.27,7.47,2.27,1.92,0,3.67-.36,5.24-1.07,1.57-.71,2.89-1.73,3.96-3.07,1.07-1.33,1.83-2.94,2.25-4.82h9.87c-.36,3.37-1.46,6.37-3.29,9.02-1.83,2.65-4.27,4.72-7.33,6.24-3.06,1.52-6.65,2.27-10.77,2.27Z"/>
          <path class="cls-2" d="m561.72,109.68c-4.88,0-9.14-1.12-12.77-3.35-3.64-2.24-6.47-5.37-8.48-9.39-2.01-4.02-3.02-8.72-3.02-14.1s1.01-10.12,3.02-14.17c2.01-4.04,4.84-7.19,8.48-9.42,3.64-2.24,7.89-3.36,12.77-3.36s9.14,1.12,12.78,3.36c3.64,2.24,6.46,5.38,8.47,9.42,2.02,4.05,3.02,8.77,3.02,14.17s-1.01,10.08-3.02,14.1c-2.01,4.02-4.83,7.15-8.47,9.39-3.64,2.24-7.89,3.35-12.78,3.35Zm.04-8.51c3.16,0,5.79-.83,7.86-2.51,2.08-1.67,3.62-3.9,4.62-6.68,1.01-2.78,1.51-5.84,1.51-9.19s-.5-6.38-1.51-9.17c-1-2.79-2.54-5.04-4.62-6.73-2.08-1.7-4.7-2.54-7.86-2.54s-5.83.85-7.91,2.54c-2.09,1.69-3.64,3.94-4.65,6.73-1,2.79-1.5,5.85-1.5,9.17s.5,6.41,1.5,9.19c1.01,2.78,2.56,5,4.65,6.68,2.09,1.67,4.73,2.51,7.91,2.51Z"/>
          <path class="cls-2" d="m597.27,108.63v-52.06h9.8v8.27h.54c.94-2.8,2.62-5.01,5.03-6.63,2.4-1.61,5.13-2.42,8.18-2.42.63,0,1.39.02,2.25.07.87.05,1.56.1,2.05.17v9.69c-.4-.11-1.13-.24-2.17-.39-1.04-.15-2.08-.22-3.11-.22-2.4,0-4.53.5-6.39,1.51-1.87,1.01-3.34,2.4-4.43,4.17-1.09,1.77-1.63,3.79-1.63,6.05v31.79h-10.13Z"/>
          <path class="cls-2" d="m633.94,128.15V56.57h9.9v8.44h.85c.59-1.08,1.44-2.34,2.54-3.76,1.11-1.42,2.65-2.67,4.61-3.74,1.96-1.07,4.56-1.61,7.79-1.61,4.2,0,7.95,1.06,11.25,3.19,3.3,2.13,5.89,5.19,7.77,9.18,1.89,4,2.83,8.81,2.83,14.44s-.94,10.45-2.81,14.46c-1.88,4.01-4.46,7.1-7.73,9.25-3.28,2.16-7.02,3.24-11.22,3.24-3.17,0-5.74-.53-7.75-1.59-2-1.06-3.56-2.3-4.69-3.73-1.13-1.42-2-2.69-2.61-3.8h-.61v27.62h-10.13Zm9.93-45.55c0,3.66.53,6.87,1.6,9.63,1.06,2.76,2.6,4.91,4.61,6.46,2.01,1.55,4.48,2.32,7.39,2.32s5.56-.81,7.59-2.42c2.04-1.62,3.58-3.81,4.63-6.59,1.05-2.78,1.57-5.91,1.57-9.39s-.51-6.52-1.54-9.25c-1.02-2.73-2.56-4.89-4.61-6.47-2.05-1.58-4.59-2.37-7.64-2.37s-5.42.76-7.44,2.27c-2.02,1.51-3.55,3.63-4.59,6.34-1.03,2.71-1.56,5.87-1.56,9.49Z"/>
          <path class="cls-2" d="m751.31,61.79h-10.58c-.4-2.26-1.16-4.25-2.27-5.96-1.1-1.72-2.46-3.18-4.07-4.37-1.61-1.2-3.4-2.1-5.37-2.71-1.98-.61-4.07-.91-6.29-.91-4,0-7.58,1-10.73,3.02-3.15,2.01-5.63,4.96-7.46,8.84-1.82,3.89-2.73,8.63-2.73,14.24s.91,10.42,2.73,14.3c1.82,3.88,4.31,6.82,7.47,8.81,3.17,1.99,6.72,2.98,10.68,2.98,2.19,0,4.27-.3,6.25-.9,1.98-.6,3.77-1.48,5.37-2.66,1.61-1.17,2.97-2.61,4.08-4.32,1.12-1.7,1.89-3.66,2.32-5.88l10.58.03c-.57,3.41-1.66,6.55-3.27,9.4-1.62,2.86-3.68,5.32-6.2,7.39-2.52,2.07-5.4,3.67-8.62,4.8-3.23,1.13-6.75,1.69-10.58,1.69-6.01,0-11.36-1.43-16.06-4.29-4.7-2.86-8.4-6.95-11.1-12.29-2.7-5.33-4.05-11.69-4.05-19.08s1.36-13.78,4.07-19.1c2.71-5.32,6.41-9.41,11.12-12.27,4.7-2.86,10.04-4.29,16.03-4.29,3.68,0,7.12.53,10.32,1.58,3.19,1.05,6.07,2.59,8.63,4.61,2.55,2.02,4.66,4.49,6.34,7.39,1.67,2.9,2.8,6.22,3.39,9.95Z"/>
          <path class="cls-2" d="m778.19,109.78c-3.3,0-6.28-.62-8.95-1.85-2.66-1.23-4.77-3.02-6.32-5.37-1.55-2.35-2.32-5.23-2.32-8.64,0-2.94.57-5.35,1.69-7.25,1.13-1.9,2.66-3.4,4.58-4.51,1.92-1.1,4.07-1.94,6.44-2.51,2.38-.57,4.79-.99,7.26-1.29,3.12-.36,5.65-.66,7.59-.9,1.95-.24,3.36-.63,4.24-1.17.88-.54,1.32-1.42,1.32-2.64v-.24c0-2.96-.83-5.25-2.49-6.88-1.66-1.63-4.13-2.44-7.4-2.44s-6.1.75-8.05,2.25c-1.96,1.5-3.31,3.17-4.05,5l-9.53-2.17c1.13-3.16,2.79-5.72,4.96-7.68,2.18-1.95,4.69-3.38,7.54-4.27,2.85-.89,5.84-1.34,8.98-1.34,2.08,0,4.28.24,6.62.73,2.34.49,4.53,1.37,6.58,2.66,2.05,1.29,3.72,3.12,5.03,5.51,1.31,2.38,1.96,5.48,1.96,9.27v34.57h-9.9v-7.12h-.41c-.65,1.31-1.64,2.6-2.94,3.87-1.31,1.26-3,2.31-5.05,3.15-2.06.84-4.53,1.25-7.39,1.25Zm2.2-8.13c2.8,0,5.2-.55,7.2-1.66,2-1.11,3.53-2.56,4.58-4.36,1.05-1.8,1.57-3.72,1.57-5.78v-6.71c-.36.36-1.05.69-2.08,1-1.03.31-2.2.57-3.51.78-1.31.21-2.59.41-3.82.58-1.24.17-2.29.31-3.12.42-1.97.25-3.76.67-5.37,1.25-1.61.59-2.9,1.43-3.86,2.53-.96,1.1-1.44,2.55-1.44,4.35,0,2.51.93,4.4,2.78,5.68,1.85,1.28,4.21,1.92,7.09,1.92Z"/>
          <path class="cls-2" d="m817.36,128.15V56.57h9.9v8.44h.85c.59-1.08,1.44-2.34,2.54-3.76,1.1-1.42,2.64-2.67,4.61-3.74,1.97-1.07,4.56-1.61,7.8-1.61,4.2,0,7.95,1.06,11.25,3.19,3.3,2.13,5.89,5.19,7.78,9.18,1.89,4,2.83,8.81,2.83,14.44s-.94,10.45-2.81,14.46c-1.87,4.01-4.45,7.1-7.73,9.25-3.27,2.16-7.02,3.24-11.22,3.24-3.16,0-5.74-.53-7.74-1.59-2-1.06-3.56-2.3-4.69-3.73-1.13-1.42-2-2.69-2.61-3.8h-.61v27.62h-10.13Zm9.93-45.55c0,3.66.53,6.87,1.59,9.63,1.06,2.76,2.6,4.91,4.61,6.46,2.01,1.55,4.47,2.32,7.39,2.32s5.56-.81,7.59-2.42c2.03-1.62,3.58-3.81,4.62-6.59,1.05-2.78,1.58-5.91,1.58-9.39s-.52-6.52-1.54-9.25c-1.03-2.73-2.57-4.89-4.61-6.47-2.04-1.58-4.59-2.37-7.64-2.37s-5.42.76-7.44,2.27c-2.02,1.51-3.56,3.63-4.59,6.34-1.04,2.71-1.56,5.87-1.56,9.49Z"/>
          <path class="cls-2" d="m881.39,45.89c-1.76,0-3.27-.6-4.53-1.78-1.25-1.19-1.88-2.6-1.88-4.25s.63-3.1,1.88-4.29c1.25-1.18,2.76-1.78,4.53-1.78s3.27.59,4.52,1.78c1.26,1.19,1.88,2.62,1.88,4.29s-.63,3.07-1.88,4.25c-1.25,1.19-2.76,1.78-4.52,1.78Zm-5.12,62.74v-52.06h10.13v52.06h-10.13Z"/>
          <path class="cls-2" d="m924.32,56.57v8.13h-28.44v-8.13h28.44Zm-20.81-12.47h10.13v49.24c0,1.96.29,3.44.88,4.42.59.98,1.35,1.65,2.29,2,.94.35,1.96.53,3.07.53.81,0,1.53-.06,2.14-.17.61-.11,1.09-.2,1.42-.27l1.83,8.37c-.59.23-1.42.46-2.51.69-1.08.24-2.44.37-4.06.39-2.67.04-5.15-.43-7.46-1.42-2.31-1-4.17-2.53-5.59-4.61-1.43-2.08-2.14-4.69-2.14-7.83v-51.35Z"/>
          <path class="cls-2" d="m950.66,109.78c-3.3,0-6.28-.62-8.95-1.85-2.66-1.23-4.77-3.02-6.32-5.37-1.55-2.35-2.32-5.23-2.32-8.64,0-2.94.57-5.35,1.69-7.25,1.13-1.9,2.66-3.4,4.58-4.51,1.92-1.1,4.07-1.94,6.44-2.51,2.37-.57,4.79-.99,7.25-1.29,3.12-.36,5.65-.66,7.59-.9,1.94-.24,3.36-.63,4.24-1.17.88-.54,1.32-1.42,1.32-2.64v-.24c0-2.96-.83-5.25-2.49-6.88-1.66-1.63-4.13-2.44-7.4-2.44s-6.1.75-8.05,2.25c-1.96,1.5-3.31,3.17-4.05,5l-9.52-2.17c1.13-3.16,2.79-5.72,4.96-7.68,2.18-1.95,4.69-3.38,7.54-4.27,2.84-.89,5.84-1.34,8.98-1.34,2.08,0,4.28.24,6.62.73,2.34.49,4.53,1.37,6.57,2.66,2.05,1.29,3.72,3.12,5.03,5.51,1.31,2.38,1.97,5.48,1.97,9.27v34.57h-9.9v-7.12h-.41c-.65,1.31-1.64,2.6-2.95,3.87-1.31,1.26-3,2.31-5.05,3.15-2.06.84-4.53,1.25-7.39,1.25Zm2.2-8.13c2.8,0,5.2-.55,7.2-1.66,2-1.11,3.52-2.56,4.58-4.36,1.05-1.8,1.57-3.72,1.57-5.78v-6.71c-.36.36-1.05.69-2.08,1-1.03.31-2.19.57-3.51.78-1.31.21-2.59.41-3.83.58-1.24.17-2.28.31-3.12.42-1.97.25-3.76.67-5.37,1.25-1.62.59-2.9,1.43-3.86,2.53-.96,1.1-1.44,2.55-1.44,4.35,0,2.51.92,4.4,2.77,5.68,1.86,1.28,4.22,1.92,7.09,1.92Z"/>
          <path class="cls-2" d="m999.97,39.22v69.41h-10.14V39.22h10.14Z"/>
        </g>
        <path class="cls-1" d="m237.58,132.29l-55.46-63.16-55.88,76.02c38.19-.46,75.44-4.86,111.34-12.87Z"/>
      </g>
      <path class="cls-3" d="m126.25,145.16l38.7-52.65L96.94,0,0,131.94c38.46,8.7,78.49,13.32,119.61,13.32l6.64-.1Z"/>
    </g>
  </g>
</svg>