<?xml version="1.0" encoding="utf-8"?>
<!-- Generator: Adobe Illustrator 25.2.3, SVG Export Plug-In . SVG Version: 6.00 Build 0)  -->
<svg version="1.1" id="Capa_1" xmlns="http://www.w3.org/2000/svg" xmlns:xlink="http://www.w3.org/1999/xlink" x="0px" y="0px"
	 viewBox="0 0 32 32" style="enable-background:new 0 0 32 32;" xml:space="preserve">
<style type="text/css">
	.st0{fill:#FFFFFF;}
</style>
<path class="st0" d="M16.9,15.5L7,5.7C6.6,5.3,5.9,5.3,5.6,5.8c-0.3,0.4-0.3,0.9,0,1.3l9.1,9.1l-8.8,8.8c-0.4,0.4-0.4,1,0,1.4l0,0
	c0.4,0.4,1,0.4,1.4,0c0,0,0,0,0,0l9.6-9.6C17.2,16.4,17.2,15.9,16.9,15.5z"/>
<path class="st0" d="M26.5,15.5l-9.9-9.9c-0.4-0.4-1.1-0.3-1.4,0.1c-0.3,0.4-0.3,0.9,0,1.3l9.1,9.1l-8.8,8.8c-0.4,0.4-0.4,1,0,1.4
	l0,0c0.4,0.4,1,0.4,1.4,0l9.6-9.6C26.8,16.4,26.8,15.9,26.5,15.5z"/>
</svg>
