<?xml version="1.0" encoding="utf-8"?>
<!-- Generator: Adobe Illustrator 25.3.1, SVG Export Plug-In . SVG Version: 6.00 Build 0)  -->
<svg version="1.1" id="Capa_1" xmlns="http://www.w3.org/2000/svg" xmlns:xlink="http://www.w3.org/1999/xlink" x="0px" y="0px"
	 viewBox="0 0 14.2 16" style="enable-background:new 0 0 14.2 16;" xml:space="preserve">
<style type="text/css">
	.st0{fill:#888888;}
	.st1{fill:none;stroke:#888888;stroke-width:1.39;stroke-linecap:round;stroke-miterlimit:10;}
</style>
<g id="Capa_2_1_">
	<g id="Layer_1">
		<circle class="st0" cx="10.8" cy="14.3" r="1.7"/>
		<circle class="st0" cx="4.6" cy="14.3" r="1.7"/>
		<path class="st1" d="M13.1,6.3c0.3,0,0.5,0.2,0.5,0.5c0,0.1,0,0.1,0,0.2l-2,5.1c-0.1,0.4-0.5,0.6-0.9,0.6H4.8
			c-0.5,0-0.9-0.3-1-0.8L2.8,6.3"/>
		<path class="st1" d="M2.8,6.3L2.6,5.4C2.5,4.9,2,4.6,1.6,4.6H0.7"/>
		<path class="st0" d="M11,5.4L8.2,9L5.4,5.4h1.8c0-5.6,5.6-5.4,5.6-5.4S9.2,0.3,9.2,5.4H11z"/>
	</g>
</g>
</svg>
