<svg xmlns="http://www.w3.org/2000/svg" viewBox="0 0 14.25 16"><defs><style>.cls-1{fill:#65b32e;}.cls-2{fill:none;stroke:#65b32e;stroke-linecap:round;stroke-miterlimit:10;stroke-width:1.39px;}</style></defs><g id="Capa_2" data-name="Capa 2"><g id="Layer_1" data-name="Layer 1"><circle class="cls-1" cx="10.83" cy="14.27" r="1.73"/><circle class="cls-1" cx="4.6" cy="14.27" r="1.73"/><path class="cls-2" d="M13.06,6.33a.49.49,0,0,1,.46.68l-2,5.13a1,1,0,0,1-.92.64H4.82a1,1,0,0,1-1-.81L2.76,6.33"/><path class="cls-2" d="M2.75,6.33l-.19-.94a1,1,0,0,0-1-.79H.69"/><path class="cls-1" d="M11,5.39,8.22,9,5.45,5.39H7.26C7.26-.19,12.84,0,12.84,0S9.18.26,9.18,5.39Z"/></g></g></svg>