<?xml version="1.0" encoding="utf-8"?>
<!-- Generator: Adobe Illustrator 25.3.1, SVG Export Plug-In . SVG Version: 6.00 Build 0)  -->
<svg version="1.1" id="Capa_1" xmlns="http://www.w3.org/2000/svg" xmlns:xlink="http://www.w3.org/1999/xlink" x="0px" y="0px"
	 viewBox="0 0 17 18" style="enable-background:new 0 0 17 18;" xml:space="preserve">
<style type="text/css">
	.st0{fill:#888888;}
	.st1{fill:none;stroke:#888888;stroke-width:1.66;stroke-linecap:round;stroke-linejoin:round;}
</style>
<g id="Capa_2_1_">
	<g id="Layer_1">
		<circle class="st0" cx="12.9" cy="15.9" r="2.1"/>
		<circle class="st0" cx="5.5" cy="15.9" r="2.1"/>
		<path class="st1" d="M15.6,6.5c0.3,0,0.6,0.3,0.6,0.6c0,0.1,0,0.1,0,0.2l-2.4,6.1c-0.2,0.5-0.6,0.8-1.1,0.8H5.8
			c-0.6,0-1.1-0.4-1.2-1L3.3,6.5"/>
		<path class="st1" d="M3.3,6.5L3.1,5.3C2.9,4.8,2.5,4.4,1.9,4.4H0.8"/>
		<path class="st0" d="M11.8,3.8C6.6,7,8.6,10.9,8.6,10.9s-3.6-5.6,2.1-9L9.5,0L15,0.6l-2,5.1L11.8,3.8z"/>
	</g>
</g>
</svg>
