<svg xmlns="http://www.w3.org/2000/svg" viewBox="0 0 17 18"><defs><style>.cls-1{fill:#e85347;}.cls-2,.cls-3{fill:none;stroke:#e85347;stroke-linecap:round;stroke-linejoin:round;}.cls-2{stroke-width:1.66px;}.cls-3{stroke-width:1.66px;}</style></defs><g id="Capa_2" data-name="Capa 2"><g id="Layer_1" data-name="Layer 1"><circle class="cls-1" cx="12.93" cy="15.93" r="2.07"/><circle class="cls-1" cx="5.49" cy="15.93" r="2.07"/><path class="cls-2" d="M15.58,6.47a.59.59,0,0,1,.55.8L13.77,13.4a1.17,1.17,0,0,1-1.1.76H5.75a1.18,1.18,0,0,1-1.16-1L3.29,6.47"/><path class="cls-3" d="M3.28,6.47,3.06,5.35A1.19,1.19,0,0,0,1.9,4.4H.83"/><path class="cls-1" d="M11.83,3.81C6.59,7,8.57,10.87,8.57,10.87s-3.63-5.59,2.07-9L9.53,0,15,.58l-2,5.08Z"/></g></g></svg>